<svg xmlns="http://www.w3.org/2000/svg" version="1.0" width="512.000000pt" height="512.000000pt" viewBox="0 0 512.000000 512.000000" preserveAspectRatio="xMidYMid meet">

<g transform="translate(0.000000,512.000000) scale(0.100000,-0.100000)" fill="#ffffff" stroke="none">
<path d="M0 4885 l0 -235 85 0 85 0 0 -1875 0 -1875 -85 0 -85 0 0 -130 0 -130 85 0 85 0 0 -85 0 -85 -85 0 -85 0 0 -235 0 -235 2560 0 2560 0 0 235 0 235 -385 0 -385 0 0 85 0 85 385 0 385 0 0 130 0 130 -85 0 -85 0 0 1875 0 1875 85 0 85 0 0 235 0 235 -2560 0 -2560 0 0 -235z m680 -2110 l0 -1875 -170 0 -170 0 0 1875 0 1875 170 0 170 0 0 -1875z m340 0 l0 -1875 -85 0 -85 0 0 1875 0 1875 85 0 85 0 0 -1875z m690 0 l0 -1875 -260 0 -260 0 0 1875 0 1875 260 0 260 0 0 -1875z m510 0 l0 -1875 -170 0 -170 0 0 1875 0 1875 170 0 170 0 0 -1875z m340 0 l0 -1875 -85 0 -85 0 0 1875 0 1875 85 0 85 0 0 -1875z m260 0 l0 -1875 -85 0 -85 0 0 1875 0 1875 85 0 85 0 0 -1875z m340 0 l0 -1875 -85 0 -85 0 0 1875 0 1875 85 0 85 0 0 -1875z m510 0 l0 -1875 -170 0 -170 0 0 1875 0 1875 170 0 170 0 0 -1875z m510 0 l0 -1875 -170 0 -170 0 0 1875 0 1875 170 0 170 0 0 -1875z m680 0 l0 -1875 -255 0 -255 0 0 1875 0 1875 255 0 255 0 0 -1875z m-4180 -2220 l0 -85 -170 0 -170 0 0 85 0 85 170 0 170 0 0 -85z m340 0 l0 -85 -85 0 -85 0 0 85 0 85 85 0 85 0 0 -85z m690 0 l0 -85 -260 0 -260 0 0 85 0 85 260 0 260 0 0 -85z m510 0 l0 -85 -170 0 -170 0 0 85 0 85 170 0 170 0 0 -85z m340 0 l0 -85 -85 0 -85 0 0 85 0 85 85 0 85 0 0 -85z m600 0 l0 -85 -255 0 -255 0 0 85 0 85 255 0 255 0 0 -85z m510 0 l0 -85 -170 0 -170 0 0 85 0 85 170 0 170 0 0 -85z m510 0 l0 -85 -170 0 -170 0 0 85 0 85 170 0 170 0 0 -85z" fill="#ffffff"/>
</g>
</svg>