<svg xmlns="http://www.w3.org/2000/svg" version="1.0" width="512.000000pt" height="512.000000pt" viewBox="0 0 512.000000 512.000000" preserveAspectRatio="xMidYMid meet">

<g transform="translate(0.000000,512.000000) scale(0.100000,-0.100000)" fill="#ffffff" stroke="none">
<path d="M1343 5105 c-102 -31 -176 -96 -222 -195 l-26 -55 0 -2295 0 -2295 26 -56 c37 -79 90 -133 167 -171 l67 -33 1184 -3 c1055 -2 1191 -1 1239 13 102 30 173 92 221 195 l26 55 0 2295 0 2295 -26 55 c-48 102 -118 164 -219 194 -48 14 -184 16 -1224 15 -939 0 -1179 -3 -1213 -14z m2439 -174 c19 -13 46 -40 59 -59 l24 -36 0 -2276 0 -2276 -24 -36 c-13 -19 -40 -46 -59 -59 l-36 -24 -1186 0 -1186 0 -36 24 c-19 13 -46 40 -59 59 l-24 36 -3 2255 c-2 1511 0 2268 7 2291 12 42 63 97 106 116 24 11 250 13 1206 11 l1175 -2 36 -24z" fill="#ffffff"/>
<path d="M2245 4745 c-16 -15 -25 -36 -25 -55 0 -19 9 -40 25 -55 l24 -25 291 0 291 0 24 25 c16 15 25 36 25 55 0 19 -9 40 -25 55 l-24 25 -291 0 -291 0 -24 -25z" fill="#ffffff"/>
<path d="M2488 787 c-124 -35 -213 -171 -194 -298 9 -63 58 -143 108 -177 57 -38 100 -52 162 -51 227 3 346 271 196 442 -69 78 -174 111 -272 84z m118 -163 c58 -28 78 -88 49 -144 -20 -40 -53 -60 -95 -60 -42 0 -75 20 -95 60 -29 56 -9 116 47 143 42 21 52 21 94 1z" fill="#ffffff"/>
</g>
</svg>